<?xml version="1.0" standalone="no"?>
<!DOCTYPE svg PUBLIC "-//W3C//DTD SVG 20010904//EN"
 "http://www.w3.org/TR/2001/REC-SVG-20010904/DTD/svg10.dtd">
<svg version="1.0" xmlns="http://www.w3.org/2000/svg"
 width="573.000000pt" height="172.000000pt" viewBox="0 0 573.000000 172.000000"
 preserveAspectRatio="xMidYMid meet">

<g transform="translate(0.000000,172.000000) scale(0.100000,-0.100000)"
fill="#000000" stroke="none">
<path d="M0 860 l0 -860 2860 0 2860 0 0 860 0 860 -2860 0 -2860 0 0 -860z
m820 685 c0 -20 -5 -25 -25 -25 l-25 0 0 -125 c0 -104 -2 -125 -15 -125 -13 0
-15 21 -15 125 l0 125 -25 0 c-20 0 -25 5 -25 25 0 24 2 25 65 25 63 0 65 -1
65 -25z m50 -35 l0 -60 30 0 30 0 0 60 c0 47 3 60 15 60 13 0 15 -23 15 -150
0 -127 -2 -150 -15 -150 -12 0 -15 14 -15 65 l0 65 -30 0 -30 0 0 -65 c0 -51
-3 -65 -15 -65 -13 0 -15 23 -15 150 0 127 2 150 15 150 12 0 15 -13 15 -60z
m230 35 c0 -22 -4 -25 -40 -25 -39 0 -40 -1 -40 -35 0 -34 1 -35 40 -35 36 0
40 -2 40 -25 0 -22 -4 -25 -40 -25 -40 0 -40 0 -40 -39 0 -40 0 -40 43 -43 35
-2 43 -7 45 -25 3 -22 0 -23 -57 -23 l-61 0 0 150 0 150 55 0 c52 0 55 -1 55
-25z m-52 -347 c63 -30 116 -117 80 -131 -8 -3 -6 -6 4 -6 17 -1 18 -23 18
-318 -1 -175 -5 -334 -10 -354 -12 -44 -71 -104 -119 -121 -20 -7 -76 -13
-126 -13 -107 1 -168 24 -206 76 l-24 34 0 368 c0 234 4 370 10 375 6 4 17 20
25 35 13 27 70 67 70 50 0 -5 4 -2 8 5 22 35 196 35 270 0z m562 -4 c41 -23
61 -42 78 -74 22 -43 22 -51 22 -381 0 -375 -1 -384 -66 -437 -54 -45 -100
-53 -274 -50 l-155 3 -3 465 c-1 256 0 476 3 489 l6 23 167 -4 c165 -3 168 -4
222 -34z m405 -454 l0 -485 -115 0 -115 0 -3 465 c-1 256 0 475 3 488 5 22 8
23 118 20 l112 -3 0 -485z m176 477 c3 -4 19 -2 36 3 17 6 53 10 79 8 l49 -3
27 -100 c15 -55 29 -110 32 -122 5 -18 3 -21 -11 -17 -12 5 -11 1 5 -10 12
-10 23 -27 24 -39 1 -12 5 48 8 133 l5 155 97 3 c87 2 97 1 102 -16 7 -20 -1
-52 -13 -52 -21 0 -42 -27 -35 -45 7 -18 8 -18 14 1 6 17 9 15 23 -12 13 -26
16 -86 16 -430 1 -219 -3 -405 -7 -412 -6 -9 -38 -12 -123 -10 l-114 3 -52
185 -52 185 -3 -185 -3 -185 -100 0 -100 0 0 480 c0 315 3 479 10 478 6 -1 13
-12 16 -25 5 -21 6 -21 13 8 5 23 12 30 29 30 12 -1 25 -4 28 -9z m1536 -11
c53 -23 99 -73 113 -126 7 -27 10 -152 8 -363 -3 -372 -5 -377 -93 -432 l-48
-30 -179 -3 -178 -3 0 484 c0 266 3 487 8 491 4 4 79 6 167 4 124 -3 169 -8
202 -22z m611 -53 c3 -84 7 -81 -118 -85 l-75 -3 1 -50 c1 -27 2 -76 3 -107
l1 -57 83 -3 82 -3 0 -70 0 -70 -82 -3 -83 -3 0 -144 0 -144 93 -3 92 -3 0
-75 0 -75 -210 0 -210 0 -3 475 c-1 261 0 481 3 488 3 10 52 12 212 10 l208
-3 3 -72z m506 50 c3 -16 13 -75 21 -133 8 -58 18 -118 21 -135 4 -23 3 -26
-5 -15 -7 9 -11 10 -11 3 0 -6 5 -15 10 -18 6 -3 10 -11 10 -16 0 -6 -4 -7
-10 -4 -5 3 -10 1 -10 -4 0 -6 6 -11 14 -11 8 0 17 -15 20 -35 11 -58 77 -487
83 -538 l6 -48 -114 3 -113 3 -8 35 c-4 19 -12 75 -19 123 l-11 88 -32 -3 -31
-3 -16 -110 c-10 -60 -17 -116 -18 -122 -1 -10 -31 -13 -116 -13 -103 0 -115
2 -115 18 0 9 11 85 24 167 14 83 47 291 75 462 27 172 53 317 56 323 4 6 63
10 145 10 l138 0 6 -27z m545 16 c27 -6 69 -24 91 -40 74 -54 75 -59 75 -444
0 -372 1 -368 -62 -427 -50 -48 -99 -58 -274 -58 l-159 0 0 483 c0 266 3 487
7 490 11 11 268 8 322 -4z m-4862 -29 c59 -33 77 -75 79 -180 1 -47 -1 -100
-3 -117 l-5 -33 -99 0 c-117 0 -113 -5 -106 139 5 90 -5 130 -17 70 -11 -54
-7 -659 4 -659 6 0 10 44 10 113 0 61 4 118 8 125 6 9 35 12 108 10 l99 -3 0
-147 c0 -133 -2 -149 -21 -175 -35 -46 -108 -77 -192 -82 -85 -4 -142 10 -191
46 -60 46 -62 58 -61 433 2 377 5 398 65 444 47 36 90 46 190 43 73 -2 98 -7
132 -27z m2539 19 c59 -15 109 -62 123 -117 7 -23 10 -86 9 -139 l-3 -98 -94
-3 c-60 -2 -98 1 -107 9 -10 8 -14 37 -14 105 0 56 -4 94 -10 94 -6 0 -10 -60
-10 -160 l0 -159 118 -3 117 -3 0 -240 0 -240 -57 -3 c-47 -2 -59 0 -70 17
-14 20 -15 20 -63 -4 -109 -56 -251 -4 -275 100 -5 22 -10 182 -10 356 0 360
5 395 65 448 20 17 48 33 63 37 15 3 32 7 37 9 24 8 140 4 181 -6z"/>
<path d="M737 1143 c-4 -3 -7 -11 -7 -17 0 -6 5 -5 12 2 6 6 9 14 7 17 -3 3
-9 2 -12 -2z"/>
<path d="M890 1039 c0 -18 -7 -37 -17 -44 -15 -12 -15 -15 0 -48 15 -30 17
-72 17 -286 0 -216 2 -251 15 -251 13 0 15 43 15 330 0 287 -2 330 -15 330
-10 0 -15 -10 -15 -31z"/>
<path d="M1450 743 c0 -302 6 -378 24 -310 3 12 6 153 6 313 0 240 -3 294 -15
310 -13 17 -14 -19 -15 -313z"/>
<path d="M1591 714 c0 -11 3 -14 6 -6 3 7 2 16 -1 19 -3 4 -6 -2 -5 -13z"/>
<path d="M2131 1153 c0 -4 4 -17 9 -28 8 -19 9 -19 9 2 1 12 -3 25 -9 28 -5 3
-10 3 -9 -2z"/>
<path d="M3590 740 c0 -218 3 -329 10 -325 6 4 10 123 10 325 0 202 -4 321
-10 325 -7 4 -10 -107 -10 -325z"/>
<path d="M4690 717 c0 -26 4 -47 9 -47 8 0 3 79 -5 89 -2 2 -4 -17 -4 -42z"/>
<path d="M5297 1064 c-4 -4 -7 -153 -7 -331 0 -255 3 -324 13 -321 9 4 13 78
15 317 2 287 -2 354 -21 335z"/>
<path d="M5431 714 c0 -11 3 -14 6 -6 3 7 2 16 -1 19 -3 4 -6 -2 -5 -13z"/>
<path d="M2960 486 c0 -51 4 -86 10 -86 6 0 10 33 10 79 0 44 -4 83 -10 86 -6
4 -10 -25 -10 -79z"/>
<path d="M2966 371 c-4 -7 -5 -15 -2 -18 9 -9 19 4 14 18 -4 11 -6 11 -12 0z"/>
</g>
</svg>
