<?xml version="1.0" standalone="no"?>
<!DOCTYPE svg PUBLIC "-//W3C//DTD SVG 20010904//EN"
 "http://www.w3.org/TR/2001/REC-SVG-20010904/DTD/svg10.dtd">
<svg version="1.0" xmlns="http://www.w3.org/2000/svg"
 width="531.000000pt" height="333.000000pt" viewBox="0 0 531.000000 333.000000"
 preserveAspectRatio="xMidYMid meet">

<g transform="translate(0.000000,333.000000) scale(0.100000,-0.100000)"
fill="#000000" stroke="none">
<path d="M0 1660 l0 -1660 2650 0 2650 0 0 1660 0 1660 -2650 0 -2650 0 0
-1660z m830 540 c0 -15 -7 -20 -25 -20 l-25 0 0 -100 c0 -60 -4 -100 -10 -100
-6 0 -10 40 -10 100 l0 100 -25 0 c-18 0 -25 5 -25 20 0 18 7 20 60 20 53 0
60 -2 60 -20z m40 -25 c0 -43 1 -45 30 -45 29 0 30 2 30 46 0 32 4 44 13 42 9
-4 12 -36 12 -118 0 -82 -3 -114 -12 -117 -10 -4 -13 11 -13 52 0 56 0 56 -27
53 -26 -3 -28 -7 -31 -55 -2 -29 -7 -53 -13 -53 -5 0 -9 51 -9 120 0 73 4 120
10 120 6 0 10 -20 10 -45z m210 25 c0 -16 -7 -20 -35 -20 -32 0 -35 -2 -35
-30 0 -28 3 -30 35 -30 24 0 35 -5 35 -15 0 -10 -11 -15 -35 -15 -33 0 -35 -2
-35 -35 0 -34 1 -35 41 -35 33 0 40 -3 37 -17 -3 -14 -14 -18 -53 -18 l-50 0
-3 118 -3 117 51 0 c43 0 50 -3 50 -20z m3328 -249 c7 -4 17 -34 22 -67 5 -32
14 -89 20 -126 5 -37 7 -74 4 -82 -3 -9 -2 -16 4 -16 14 0 17 -11 42 -160 12
-74 30 -174 40 -222 12 -62 15 -89 7 -97 -14 -14 -162 -14 -188 -1 -11 6 -19
21 -19 35 0 14 -5 56 -12 95 -11 62 -15 70 -34 70 -30 0 -31 -3 -48 -105 -8
-49 -20 -91 -27 -96 -19 -12 -156 -11 -179 1 -15 8 -16 16 -10 52 5 24 13 70
19 103 6 33 24 132 40 220 16 88 39 211 50 274 11 63 26 118 33 123 17 10 219
10 236 -1z m-3849 -25 c60 -20 76 -53 76 -164 l0 -97 -92 -3 -93 -3 0 98 c0
67 -3 93 -10 83 -13 -21 -13 -540 0 -540 6 0 10 40 10 100 l0 100 95 0 95 0 0
-110 c0 -62 -5 -120 -12 -135 -7 -15 -33 -36 -64 -51 -43 -21 -67 -26 -131
-26 -95 0 -154 21 -186 66 -21 30 -22 40 -24 281 -2 303 4 343 55 379 63 43
188 53 281 22z m481 -1 c45 -21 84 -73 68 -92 -7 -9 -7 -13 1 -13 8 0 11 -77
11 -269 l0 -269 -27 -33 c-42 -50 -94 -69 -193 -69 -92 0 -148 18 -185 60 -19
21 -20 39 -23 298 -2 153 0 287 3 300 8 30 74 94 91 88 8 -3 14 -1 14 4 0 24
186 21 240 -5z m500 -2 c83 -41 85 -49 85 -358 0 -253 -1 -272 -20 -305 -34
-58 -92 -80 -232 -87 -66 -3 -136 -3 -156 1 l-37 7 0 378 c0 208 3 381 8 385
4 4 75 6 157 4 131 -3 156 -6 195 -25z m358 -359 l2 -382 -22 -6 c-30 -8 -152
-8 -172 0 -14 5 -16 49 -16 383 0 208 3 381 7 385 4 4 50 5 103 4 l95 -3 3
-381z m326 302 c30 -96 31 -103 14 -109 -9 -4 -7 -6 3 -6 9 -1 21 -11 27 -23
8 -18 11 4 11 100 l1 122 85 0 c71 0 87 -3 92 -17 4 -11 -3 -24 -23 -40 -27
-21 -27 -23 -8 -23 14 0 24 -8 28 -22 3 -13 6 -168 6 -345 l0 -323 -107 0
-108 0 -45 148 -45 147 -3 -147 -3 -148 -89 0 -90 0 0 380 c0 247 4 380 10
380 6 0 10 -8 11 -17 0 -15 2 -14 11 3 9 19 19 22 103 23 l94 1 25 -84z m641
58 c67 -24 80 -53 80 -169 l0 -100 -90 0 -90 0 -3 83 c-5 133 -22 96 -22 -48
l0 -130 104 0 104 0 2 -190 1 -190 -56 0 c-39 0 -57 4 -61 14 -5 12 -12 11
-47 -5 -76 -34 -173 -21 -223 32 l-29 30 0 299 c0 287 1 300 21 327 27 37 65
55 134 63 69 8 123 3 175 -16z m580 -1 c84 -44 80 -28 80 -358 l0 -293 -25
-27 c-49 -53 -92 -66 -230 -72 -70 -3 -139 -3 -154 1 l-26 6 0 386 0 386 158
-4 c137 -3 162 -6 197 -25z m523 -30 l-3 -58 -82 -3 -83 -3 0 -89 0 -90 75 0
75 0 0 -55 0 -54 -72 -3 -73 -3 -3 -117 -3 -118 86 0 85 0 0 -60 0 -60 -190 0
-190 0 0 385 0 385 190 0 191 0 -3 -57z m969 42 c34 -10 61 -27 81 -49 39 -44
43 -90 40 -376 -3 -249 -9 -266 -90 -308 -38 -20 -66 -25 -166 -29 -65 -3
-135 -3 -155 1 l-37 7 0 378 c0 208 3 381 7 384 13 14 268 7 320 -8z"/>
<path d="M4280 1541 c0 -17 5 -31 10 -31 6 0 10 11 10 24 0 14 -4 28 -10 31
-6 4 -10 -7 -10 -24z"/>
<path d="M897 1824 c-4 -4 -7 -16 -7 -27 0 -11 -8 -25 -17 -32 -15 -11 -16
-15 -3 -30 12 -14 16 -64 20 -224 7 -296 24 -265 28 51 2 230 -2 281 -21 262z"/>
<path d="M1390 1560 c0 -236 6 -292 24 -244 8 20 8 468 0 488 -18 48 -24 -8
-24 -244z"/>
<path d="M2000 1891 c0 -6 4 -13 10 -16 6 -3 7 1 4 9 -7 18 -14 21 -14 7z"/>
<path d="M2740 1366 c0 -37 4 -66 10 -66 6 0 10 26 10 59 0 33 -4 63 -10 66
-6 4 -10 -18 -10 -59z"/>
<path d="M2745 1270 c-3 -5 -1 -10 4 -10 6 0 11 5 11 10 0 6 -2 10 -4 10 -3 0
-8 -4 -11 -10z"/>
<path d="M3300 1559 c0 -171 3 -258 10 -254 6 4 10 102 10 261 0 163 -4 254
-10 254 -6 0 -10 -94 -10 -261z"/>
<path d="M4820 1560 c0 -152 4 -260 9 -260 5 0 11 35 13 78 5 133 -3 442 -13
442 -5 0 -9 -112 -9 -260z"/>
</g>
</svg>
